<svg xmlns="http://www.w3.org/2000/svg" width="256" height="256"><path fill="#00275b" fill-opacity=".016" fill-rule="evenodd" d="M0 128.004v128.004l128.25-.254 128.25-.254.254-127.75L257.008 0H0zm.485.496c0 70.4.119 99.053.265 63.672s.146-92.98 0-128S.485 58.1.485 128.5"/><path fill="#00275b" fill-opacity=".215" fill-rule="evenodd" d="M101.097 2.116C77.372 7.095 54.664 19.498 37.081 37.081 19.168 54.994 7.019 77.481 1.97 102.066.096 111.194-.117 114.879.266 131.5c.375 16.281.801 20.36 2.974 28.5 12.189 45.645 47.115 80.571 92.76 92.76 8.14 2.173 12.219 2.599 28.5 2.974 16.621.383 20.306.17 29.434-1.704 24.585-5.049 47.072-17.198 64.985-35.111 17.401-17.401 30.161-40.618 34.58-62.919.926-4.675 2.093-9.281 2.593-10.236 1.047-2.002 1.259-37.448.217-36.407-.379.38-1.524-3.439-2.544-8.486-4.681-23.169-17.269-46.212-34.846-63.79-17.829-17.829-40.477-30.1-64.642-35.025-13.872-2.826-39.566-2.798-53.18.06M.415 128c0 10.175.149 14.338.33 9.25s.182-13.413 0-18.5c-.181-5.088-.33-.925-.33 9.25"/><path fill="#00275b" fill-opacity=".426" fill-rule="evenodd" d="M105.5 1.586C52.997 10.818 10.588 53.41 1.611 105.926c-2.07 12.112-2.07 32.036 0 44.148 9.025 52.796 51.519 95.29 104.315 104.315 19.631 3.355 43.977 1.568 62.574-4.594 43.729-14.489 78.571-54.513 85.568-98.295.704-4.4 1.651-8.428 2.106-8.95 1.056-1.215 1.092-30.832.036-30.18-.435.269-1.36-3.127-2.055-7.547-1.724-10.954-6.346-24.409-12.358-35.97-18.419-35.419-52.737-60.577-91.723-67.242-11.553-1.974-33.416-1.987-44.574-.025m-28.776 59.98c-23.216 5.625-43.062 25.444-49.143 49.078-2.104 8.177-2.101 26.555.006 34.712 4.935 19.107 18.683 35.682 36.608 44.136C74.66 194.427 81.818 196 93.816 196c11.285 0 19.151-1.577 28.384-5.689l5.7-2.539 7.3 3.006c9.731 4.008 16.052 5.222 27.189 5.222 31.246 0 58.314-20.912 66.135-51.092 2.435-9.399 1.694-30.006-1.4-38.908-6.949-19.993-23.171-36.211-43.124-43.113-4.851-1.678-9.509-2.357-18.36-2.677-13.938-.502-21.488.722-30.89 5.009L128 68.296l-6.75-3.058c-3.713-1.681-9.135-3.548-12.049-4.148-7.254-1.492-25.454-1.226-32.477.476m3.776 3.009c-24.914 5.501-44.877 25.743-49.934 50.633-1.974 9.715-1.976 15.85-.007 25.584 6.678 33.029 39.541 56.381 72.213 51.311 6.618-1.026 15.877-3.923 19.046-5.959.967-.621-1.035-3.213-7.528-9.745-6.214-6.251-9.963-11.041-12.596-16.099-14.856-28.523-7.89-64.761 16.306-84.828 2.475-2.052 4.5-4.225 4.5-4.828s-3.779-2.384-8.398-3.959c-10.533-3.591-23.273-4.391-33.602-2.11m69-.093c-3.3.728-8.544 2.283-11.653 3.456l-5.652 2.133 9.214 9.214c14.591 14.593 20.605 28.678 20.576 48.195-.018 12.374-1.867 20.52-7.153 31.52-3.364 7.001-5.66 10.063-13.016 17.359-4.912 4.872-8.793 8.978-8.624 9.123 2.89 2.477 14.628 5.937 23.889 7.041 7.061.842 19.503-1.015 27.919-4.166 29.528-11.055 46.981-42.884 40.501-73.857-3.823-18.272-17.648-36.038-34.513-44.352-13.683-6.745-27.832-8.677-41.488-5.666m-25.722 11.305c-2.048 1.492-3.586 3.163-3.42 3.713.317 1.049 29.546 19.5 30.891 19.5.849 0-3.052-6.505-7.155-11.93-2.469-3.263-14.866-14.111-16.039-14.033-.305.02-2.23 1.258-4.277 2.75m-11.732 11.306c-2.76 3.434-3.069 4.299-1.918 5.378.755.706 10.822 7.263 22.372 14.569s22.087 13.987 23.417 14.846l2.416 1.562-.667-4.871c-1.63-11.886-.759-10.92-21.463-23.827C125.836 88.287 116.9 83 116.345 83c-.556 0-2.49 1.842-4.299 4.093m-8.47 13.338c-1.417 2.995-2.572 6.036-2.567 6.757.008 1.086 50.429 33.892 54.478 35.445 1.25.48 1.496-.356 3-10.179l.62-4.047-25.189-15.953c-13.854-8.775-25.769-16.295-26.478-16.711-.898-.528-2.068.891-3.864 4.688M.402 128c0 8.525.154 12.012.341 7.75s.188-11.237 0-15.5c-.187-4.263-.341-.775-.341 7.75m98.231-12.25c-1.287 6.729-1.598 10.827-.894 11.781C98.777 128.939 147.836 160 149.02 160c1.088 0 5.98-9.248 5.98-11.305 0-1.261-53.04-35.695-54.983-35.695-.472 0-1.095 1.237-1.384 2.75m-.333 21.776c1.451 11.421.943 10.862 21.327 23.474 10.222 6.325 19.125 11.629 19.783 11.786s2.691-1.573 4.516-3.843c2.785-3.466 3.097-4.335 1.946-5.419-.755-.71-10.597-7.108-21.872-14.218s-21.812-13.789-23.416-14.841l-2.916-1.912zm6.704 20.141c.015 3.31 10.15 15.666 17.505 21.34l5.558 4.288 3.653-2.956c2.009-1.626 3.781-3.38 3.938-3.898.157-.517-6.307-4.991-14.363-9.941-16.247-9.982-16.297-10.009-16.291-8.833"/><path fill="#00275b" fill-opacity=".708" fill-rule="evenodd" d="M115 .461c-.825.197-4.875.899-9 1.559-17.756 2.843-39.035 11.944-54.181 23.174C26.503 43.965 9.349 71.019 2.34 103.232c-2.512 11.546-2.512 37.99 0 49.536 11.317 52.009 48.883 89.575 100.892 100.892 11.546 2.512 37.99 2.512 49.536 0 32.213-7.009 59.267-24.163 78.038-49.479 11.424-15.408 20.538-36.89 23.198-54.681.658-4.4 1.602-8.781 2.096-9.736 1.269-2.449 1.176-25.052-.1-24.264-.582.359-1-.634-1-2.376 0-1.646-.684-6.285-1.521-10.309C242.904 51.939 204.492 13.558 153 2.419 146.235.955 118.834-.457 115 .461M77.241 61.012c-14.244 3.732-24.076 9.692-34.415 20.859-25.118 27.13-23.412 70.611 3.773 96.178 7.541 7.092 15.835 12.079 25.911 15.58 7.102 2.468 9.435 2.782 20.99 2.824 13.563.049 20.747-1.477 30.593-6.5l3.735-1.906 6.382 2.894c36.349 16.482 79.478-2.41 93.197-40.823 2.858-8.001 3.079-9.585 3.086-22.118.006-11.564-.332-14.504-2.357-20.5-3.867-11.451-8.788-19.327-17.548-28.088-13.459-13.459-26.343-19.208-45.108-20.13-12.256-.601-22.67 1.339-32.538 6.061l-5.139 2.46-6.239-2.92c-12.72-5.952-30.465-7.502-44.323-3.871m1.325 4.531C60.714 70.037 44.673 82.872 36.33 99.335c-5.967 11.776-7.969 30.086-4.772 43.65 2.816 11.946 7.803 20.599 17.333 30.071 9.885 9.825 19.036 14.972 31.244 17.573 12.974 2.764 30.814.75 40.826-4.608 2.1-1.124 2.055-1.226-1.693-3.942-6.889-4.99-14.258-14.239-18.785-23.579-9.946-20.518-9.885-40.757.185-61.5 3.86-7.951 5.985-10.862 13.035-17.854 4.632-4.595 8.199-8.577 7.926-8.85s-3.563-1.64-7.312-3.039c-8.643-3.225-26.372-4.075-35.751-1.714m69.934-.494c-2.2.529-6.545 1.898-9.656 3.043l-5.655 2.081 8.768 8.677c7.448 7.37 9.458 10.106 13.351 18.163 10.433 21.596 10.118 42.938-.947 64.089-3.823 7.308-11.706 16.686-17.638 20.984l-3.857 2.793 3.125 1.617C141.506 189.347 154.04 192 162 192c9.266 0 20.725-2.768 29.842-7.208 4.762-2.319 9.089-5.67 15.194-11.767 9.623-9.612 14.704-18.465 17.515-30.525 2.194-9.415 1.552-25.53-1.376-34.5-6.09-18.658-20.713-33.589-39.933-40.775-5.547-2.074-8.869-2.575-18.742-2.83-6.6-.17-13.8.124-16 .654m-25.264 11.728-3.264 2.723 15.572 9.74 15.573 9.741-2.308-4.157c-4.225-7.608-17.761-20.881-21.209-20.797-.605.015-2.569 1.252-4.364 2.75M112.61 87.143c-3.289 3.842-3.441 4.287-1.847 5.4 7.566 5.284 46.553 29.475 46.916 29.111.254-.254-.357-3.737-1.358-7.74l-1.821-7.279-15.5-9.601a8465 8465 0 0 0-19.153-11.84l-3.654-2.238zm-7.931 12.122c-4.394 9.259-6.873 6.546 23.856 26.104 15.096 9.608 27.691 17.074 27.99 16.591s.809-3.728 1.134-7.211l.591-6.332-25.605-16.209C118.562 103.294 106.857 96 106.634 96c-.224 0-1.103 1.469-1.955 3.265m-5.176 14.73c-.314.508-.836 3.766-1.16 7.24l-.59 6.317 25.743 16.271c14.159 8.949 25.888 16.126 26.066 15.949s1.461-2.782 2.854-5.788c1.98-4.274 2.265-5.713 1.308-6.602-.673-.626-10.674-7.113-22.224-14.416a35343 35343 0 0 1-26.213-16.586c-2.867-1.819-5.47-2.893-5.784-2.385M.385 128c0 6.875.16 9.688.355 6.25.196-3.437.196-9.062 0-12.5-.195-3.437-.355-.625-.355 6.25m98.217 9.75c2.072 11.221 1.235 10.332 21.898 23.247l19 11.876 3.765-4.082c3.467-3.758 3.625-4.179 2-5.303C140.854 160.436 98.841 134 98.402 134c-.271 0-.181 1.688.2 3.75m8.547 23.302c3.05 5.426 11.601 14.81 16.744 18.374l4.102 2.843 4.003-2.649c2.201-1.457 4.002-2.8 4.002-2.985 0-.342-2.539-1.963-20.834-13.301l-10.334-6.405z"/></svg>