<svg xmlns="http://www.w3.org/2000/svg" width="256" height="256"><path fill="#1976D2" fill-opacity=".227" fill-rule="evenodd" d="M0 127.511v85.497l128.25-.254 128.25-.254.256-85.5.255-85.5-128.505.258L0 42.015zm.478-.011c0 47.3.122 66.504.272 42.675.149-23.829.149-62.529 0-86C.6 60.704.478 80.2.478 127.5"/><path fill="#1976D2" fill-opacity=".254" fill-rule="evenodd" d="M.079 79.25c.074 34.419.186 36.756 1.475 30.75C8.793 76.272 34.926 50.514 69 43.522c5.888-1.209 2.946-1.343-31.25-1.428L0 42zM98 42.693c6.172 1.037 17.633 4.574 23.621 7.289l6.545 2.968 4.667-2.337c5.541-2.774 13.576-5.502 21.167-7.187 4.722-1.048.975-1.216-26.5-1.187-17.6.018-30.875.222-29.5.454m90.5.967c12.911 2.761 27.394 9.879 37.763 18.56 14.275 11.952 25.804 32.506 29.044 51.78.232 1.375.482-14.262.557-34.75L256 42l-37.25.082c-35.634.078-36.946.146-30.25 1.578M70.075 48.087c-17.691 3.471-35.767 14.289-47.101 28.188C16.54 84.165 9.558 98.202 6.99 108.41c-2.483 9.871-2.67 26.598-.411 36.893 2.073 9.443 9.999 25.617 16.381 33.422 10.539 12.888 27.076 23.192 43.997 27.413 7.18 1.791 10.425 2.032 21.5 1.601 13.385-.52 22.166-2.483 30.832-6.892l3.789-1.927-4.789-3.799c-7.455-5.913-16.769-16.394-21.184-23.84C75.62 135.043 83.923 87.353 116.25 61.318c3.162-2.547 5.75-4.962 5.75-5.368 0-1.162-11.782-5.545-19.697-7.329-7.738-1.743-24.638-2.023-32.228-.534m81.037.958c-4.063 1.064-9.846 3.06-12.851 4.436l-5.463 2.501 4.851 3.847c35.111 27.847 43.517 75.752 19.932 113.594-4.528 7.264-13.326 16.992-19.908 22.013-2.02 1.541-3.673 3.15-3.673 3.576 0 1.253 11.853 5.616 20.383 7.503 10.662 2.36 29.101 1.649 39.117-1.508 27.727-8.74 48.516-30.617 55.51-58.417 2.483-9.871 2.67-26.598.411-36.893-2.073-9.443-9.999-25.617-16.381-33.422-10.399-12.717-27.011-23.149-43.45-27.285-10.656-2.681-28.126-2.656-38.478.055m-28.468 13.501c-2.554 1.95-4.644 3.933-4.644 4.408 0 .995 39.011 25.368 39.624 24.756.902-.903-9.669-15.585-15.153-21.046C137.41 65.624 129.029 59 127.714 59c-.235 0-2.516 1.596-5.07 3.546M108.48 76.025c-2.189 2.764-3.98 5.44-3.98 5.947 0 1.199 60.415 39.446 61.149 38.712.804-.803-2.557-16.854-3.965-18.935C160.532 100.045 114.761 71 113.229 71c-.423 0-2.56 2.261-4.749 5.025M97.098 94.09c-1.765 3.947-3.008 7.703-2.761 8.345s4.659 3.826 9.806 7.073 20.562 13.019 34.257 21.715 25.054 15.657 25.243 15.468c.737-.737 2.356-11.181 2.337-15.077l-.02-4.114-31.614-20c-17.388-11-32.16-20.132-32.827-20.294-.669-.162-2.651 2.924-4.421 6.884m-5.494 16.16c-.346 1.237-.904 5.625-1.24 9.75l-.612 7.5 31.983 20.25c17.59 11.138 32.436 20.25 32.99 20.25.97 0 7.275-12.996 7.275-14.995 0-.537-1.687-2.07-3.75-3.405-9.683-6.272-65.527-41.6-65.757-41.6-.143 0-.543 1.013-.889 2.25m-1.129 27.881c1.206 7.625 3.375 15.151 4.722 16.385 2.435 2.229 47.11 29.548 47.859 29.265.92-.347 8.955-10.047 8.916-10.763-.028-.513-59.303-38.178-61.201-38.887-.62-.232-.73 1.256-.296 4M.136 175.75 0 213l37.75-.07 37.75-.071-8.84-1.863c-10.984-2.314-26.702-9.857-35.456-17.014C15.764 181.359 4.061 161.037.693 141c-.232-1.375-.482 14.262-.557 34.75M255 141.106c0 4.311-3.28 14.67-7.408 23.394-11.49 24.283-33.625 41.444-60.592 46.978-5.888 1.209-2.946 1.343 31.25 1.428L256 213v-37c0-20.35-.225-37-.5-37s-.5.948-.5 2.106M99.036 165.098c5.063 9.589 16.127 22.166 24.667 28.042 4.683 3.222 4.724 3.215 11.099-1.904l4.302-3.455-19.302-12.001c-22.462-13.967-22.516-13.994-20.766-10.682m24.537 39.061c-5.471 2.885-13.903 5.745-21.573 7.319-5.919 1.215-3.551 1.332 26.5 1.31 19.447-.014 31.082-.347 28.331-.811-7.075-1.194-15.583-3.845-22.702-7.073-3.523-1.597-6.456-2.884-6.517-2.86-.062.025-1.879.976-4.039 2.115"/><path fill="#1976D2" fill-opacity=".776" fill-rule="evenodd" d="M.055 77.75.11 113.5l1.958-7.5c7.991-30.6 34.056-55.926 64.342-62.516 5.479-1.192 2.452-1.333-30.16-1.405L0 42zm106.07-33.729c4.194 1.031 10.809 3.299 14.7 5.038l7.074 3.164 8.363-3.592c4.6-1.976 11.035-4.238 14.301-5.028 5.59-1.353 4.243-1.437-23.063-1.447l-29-.011zm85.875.047c8.935 2.333 19.699 7.287 27.691 12.744 6.696 4.571 17.238 14.997 21.571 21.332 4.737 6.926 10.555 19.712 12.675 27.856l1.953 7.5.055-35.75L256 42l-35.75.055-35.75.055zM73.531 48.046c-31.375 4.923-56.892 27.691-65.738 58.655-1.79 6.265-2.228 10.355-2.228 20.799 0 15.595 2.035 24.005 9.182 37.932 3.806 7.416 6.393 10.799 14.203 18.57 7.67 7.632 11.351 10.44 18.7 14.265 20.33 10.584 41.756 12.331 63.455 5.174 4.183-1.38 8.386-3.079 9.34-3.777 1.572-1.15 1.35-1.534-2.391-4.127-5.448-3.775-14.595-13.631-19.476-20.986-15.373-23.161-18.136-56.721-6.739-81.855 5.816-12.829 14.627-24.185 25.446-32.799l4.784-3.81-2.941-1.521c-10.491-5.425-32.508-8.573-45.597-6.52m84.469.017c-6.622 1.164-20.034 5.51-22.445 7.273-1.572 1.15-1.35 1.534 2.391 4.127 5.448 3.775 14.595 13.631 19.476 20.986 15.373 23.161 18.136 56.721 6.739 81.855-5.816 12.829-14.627 24.185-25.446 32.799l-4.784 3.81 2.941 1.521c1.617.836 6.92 2.715 11.784 4.176 7.444 2.234 10.823 2.665 21.344 2.718 13.234.067 19.77-1.136 31.158-5.736 22.522-9.097 40.117-29.027 47.049-53.293 1.79-6.265 2.228-10.355 2.228-20.799 0-15.595-2.035-24.005-9.182-37.932-3.776-7.358-6.459-10.883-14.228-18.69-8.497-8.54-10.753-10.196-20.05-14.72-5.761-2.803-13.4-5.795-16.975-6.649-8.209-1.959-24.811-2.709-32-1.446m-35.5 15.011c-2.2 1.66-4.092 3.335-4.204 3.722-.171.589 35.087 22.923 38.015 24.082 1.409.557-3.221-6.887-8.553-13.754-5.142-6.621-17.264-17.14-19.703-17.096-.855.015-3.355 1.386-5.555 3.046m-13.385 12.789c-2.263 2.703-4.115 5.345-4.115 5.872 0 .908 58.17 38.265 59.585 38.265.95 0-.337-8.841-2.129-14.632l-1.507-4.868-20.725-12.769c-11.398-7.023-22.135-13.672-23.859-14.776l-3.136-2.006zM98.035 93.2c-1.598 3.465-3.047 7.052-3.22 7.972-.232 1.232 8.47 7.24 33.062 22.83 18.357 11.637 33.94 21.374 34.627 21.638.841.323 1.455-1.016 1.873-4.08.343-2.508.889-6.518 1.214-8.911l.591-4.35-27.341-17.324a19675 19675 0 0 1-32.62-20.699l-5.28-3.375zm-6.606 21.474c-1.713 13.601-5.128 9.977 31.053 32.952 17.591 11.17 32.335 19.957 32.766 19.526.43-.43 2.092-3.885 3.691-7.677 2.671-6.331 2.772-6.989 1.235-8.062-3.991-2.788-65.686-41.672-66.79-42.096-.83-.318-1.456 1.397-1.955 5.357M91 137.021c0 4.136 3.162 15.868 4.597 17.06.808.67 11.691 7.646 24.186 15.502l22.717 14.283 4.229-4.683c2.327-2.576 4.233-5.133 4.237-5.683.005-.825-49.736-33.02-57.601-37.282-2.14-1.16-2.365-1.084-2.365.803M.055 177.25 0 213l35.75-.055 35.75-.055-7.5-1.958C33.839 203.056 9.944 179.161 2.068 149L.11 141.5zm253.708-28.037c-4.511 18.697-18.317 38.25-35.088 49.694-6.746 4.603-18.512 9.877-26.997 12.101l-7.178 1.882 35.75.055L256 213v-35.5c0-19.525-.113-35.497-.25-35.493s-1.032 3.247-1.987 7.206M101.16 167.812c4.583 7.685 11.749 16.069 18.484 21.624 3.71 3.06 7.372 5.564 8.137 5.564 1.489 0 10.243-5.948 10.184-6.92-.034-.561-36.124-23.194-38.203-23.958-.565-.207.064 1.453 1.398 3.69m18.877 38.373c-3.555 1.658-9.63 3.844-13.5 4.859L99.5 212.89l29-.017 29-.018-7.693-1.891c-4.231-1.041-10.705-3.258-14.388-4.928s-7.196-2.997-7.807-2.95-4.02 1.442-7.575 3.099"/></svg>