<svg xmlns="http://www.w3.org/2000/svg" width="256" height="256"><path fill="#00275b" fill-opacity=".231" fill-rule="evenodd" d="M10 127.5V206h236V49H10z"/><path fill="#00275b" fill-opacity=".245" fill-rule="evenodd" d="M10.079 83.25c.072 30.743.214 33.634 1.389 28.236 6.533-29.999 28.861-53.212 58.089-60.39l7.943-1.951-33.75-.073L10 49zm97.9-32.182c4.114 1.077 10.302 3.279 13.75 4.893L128 58.895l6.271-2.934c3.448-1.614 9.636-3.816 13.75-4.893l7.479-1.958h-55zm79 0c29.017 7.596 51.171 30.666 57.434 59.806 1.338 6.225 1.429 4.554 1.505-27.624L246 49l-33.25.055-33.25.055zM74 54.428C46.172 60.326 23.858 81.461 16.381 109c-2.42 8.912-2.42 28.088 0 37 10.375 38.212 48.48 62.288 86.418 54.601 8.055-1.632 20.201-6.179 20.201-7.563 0-.385-1.172-1.327-2.604-2.093-1.432-.767-6.17-5.162-10.53-9.768-6.382-6.742-8.879-10.352-12.812-18.526-6.452-13.403-8.355-21.401-8.369-35.151-.017-17.128 5.173-33.364 14.9-46.615C107.364 75.736 120.491 63 122.019 63c2.478 0 .544-1.94-3.769-3.78-13.086-5.582-31.248-7.549-44.25-4.792m78 .06c-6.996 1.57-19 6.28-19 7.456 0 .395 1.172 1.345 2.604 2.111s6.17 5.162 10.53 9.768c6.382 6.742 8.879 10.352 12.812 18.526 6.597 13.707 8.386 21.383 8.309 35.651-.077 14.255-2.342 23.478-8.867 36.113-4.79 9.274-17.129 23.805-22.784 26.832-1.432.766-2.604 1.712-2.604 2.101 0 .913 7.958 4.303 15 6.389 7.903 2.341 22.077 3.068 31 1.589 49.147-8.146 76.816-60.938 55.412-105.728-8.934-18.694-25.411-32.792-45.912-39.283-9.106-2.883-27.097-3.635-36.5-1.525m-28.852 13.007c-2.341 1.852-4.256 3.736-4.256 4.187 0 .847 35.358 23.261 35.932 22.777.65-.548-3.224-7.101-7.466-12.628-4.555-5.936-12.285-13.175-17.113-16.027-2.791-1.649-2.914-1.619-7.097 1.691M110.09 79.743c-2.242 2.616-4.057 5.207-4.033 5.757.05 1.135 56.144 36.632 56.82 35.956.532-.532-2.797-16.742-3.722-18.125-.485-.725-33.268-21.415-43.821-27.656-.689-.407-2.835 1.258-5.244 4.068m-8.272 12.496c-2.618 4.686-4.816 10.037-4.774 11.62.046 1.698 62.589 41.841 63.605 40.825.991-.991 2.303-8.184 2.313-12.684l.01-4.5-27.62-17.5c-34.887-22.103-31.97-20.559-33.534-17.761m-7.286 18.71c-.323.522-.854 4.459-1.181 8.75l-.595 7.801 29.687 18.819c21.579 13.679 30.023 18.539 30.918 17.796 1.804-1.497 5.928-11.919 5.332-13.474-.452-1.176-61.657-40.641-63.03-40.641-.3 0-.809.427-1.131.949M93 134.456c0 .818.754 4.92 1.676 9.116 1.97 8.963-.271 6.964 26.824 23.933l20 12.526 4.257-4.745c2.341-2.611 4.12-5.155 3.954-5.654-.255-.763-18.648-12.696-49.961-32.413-4.735-2.981-6.75-3.806-6.75-2.763M10.079 171.75 10 206l33.25-.055 33.25-.055-7.073-1.855c-29.613-7.766-51.438-30.47-57.899-60.232-1.259-5.797-1.375-3.552-1.449 27.947M245 140.602c0 3.831-5.472 19.498-8.941 25.602-10.614 18.674-29.02 32.674-49.559 37.695l-8 1.956 33.75.073L246 206v-34c0-18.7-.225-34-.5-34s-.5 1.171-.5 2.602m-144 19.833c0 1.488 3.546 7.397 7.642 12.734 4.547 5.926 12.284 13.174 17.091 16.014 2.77 1.637 2.897 1.603 7.539-1.976 3.669-2.829 4.444-3.894 3.475-4.772-.686-.622-7.997-5.319-16.247-10.436-8.25-5.118-16.013-9.963-17.25-10.767s-2.25-1.163-2.25-.797m20.455 38.64c-3.324 1.601-9.399 3.789-13.5 4.863l-7.455 1.952 28-.055c18.705-.036 26.531-.342 23.575-.922-6.215-1.22-13.761-3.782-19.292-6.551-2.594-1.299-4.844-2.325-5-2.28-.156.044-3.003 1.391-6.328 2.993"/><path fill="#00275b" fill-opacity=".777" fill-rule="evenodd" d="m10.055 81.75.055 32.75 1.854-7C19.426 79.323 40.658 58.283 69.5 50.484c4.492-1.215 1.721-1.359-27.25-1.418L10 49zM109.5 50.881c3.3.956 8.835 3.021 12.301 4.588l6.301 2.85 5.741-2.744c3.157-1.509 8.647-3.574 12.199-4.588l6.458-1.845h-49zm79.299.062c26.729 7.642 47.35 28.541 55.16 55.903l1.899 6.654.071-32.25L246 49l-31.75.071-31.75.071zM70.077 56.054c-26.392 6.911-46.446 27.251-53.2 53.959-3.006 11.89-2.362 29.083 1.517 40.487 8.409 24.72 27.728 42.557 53.106 49.034 8.966 2.288 24.591 2.339 33.818.11 7.239-1.749 16.728-5.471 16.613-6.517-.038-.345-2.752-2.791-6.031-5.435-10.94-8.823-20.186-23.101-25.057-38.692-1.989-6.366-2.343-9.617-2.343-21.5 0-11.889.354-15.131 2.345-21.5 3.069-9.811 8.138-19.831 13.675-27.026C108.908 73.271 119.633 63 121.2 63c2.461 0 .107-2.045-4.45-3.864-14.084-5.622-32.363-6.829-46.673-3.082m79.65-.489c-6.378 1.546-15.766 5.328-15.658 6.308.038.345 2.752 2.791 6.031 5.435 10.94 8.823 20.186 23.101 25.057 38.692 1.989 6.366 2.343 9.617 2.343 21.5 0 11.889-.354 15.131-2.345 21.5-3.069 9.811-8.138 19.831-13.675 27.026C147.092 181.729 136.367 192 134.8 192c-.44 0-.8.402-.8.894 0 1.263 11.365 5.642 18.5 7.127 3.3.687 10.275 1.22 15.5 1.184 33.984-.234 62.707-22.938 71.123-56.218 3.006-11.89 2.362-29.083-1.517-40.487-8.354-24.559-27.961-42.753-52.67-48.874-8.117-2.011-27.025-2.043-35.209-.061m-26.698 12.529c-3.541 2.565-4.036 3.307-2.9 4.344C122.684 74.769 154 93.924 154 93.155c0-1.597-6.226-10.483-10.766-15.366C138.359 72.545 129.406 65 128.06 65c-.418 0-2.682 1.392-5.031 3.094m-12.956 12.561c-2.254 2.56-3.922 4.829-3.708 5.044.215.214 12.708 8.209 27.762 17.767 30.546 19.392 29.458 19.122 26.38 6.561l-1.66-6.77-21.822-13.629C125.022 82.133 114.97 76 114.686 76s-2.36 2.095-4.613 4.655m-9.515 14.997c-1.436 3.033-2.712 6.36-2.835 7.394-.173 1.458 6.82 6.354 31.277 21.896 35.387 22.487 32.015 21.537 33.383 9.406l.694-6.153-17.788-11.272a15998 15998 0 0 1-29.954-19.029l-12.166-7.757zm-6.042 18.53c-.345 2.375-.715 6.313-.822 8.752l-.194 4.434 29.478 18.705 29.479 18.705 1.582-2.639c2.675-4.461 5.107-11.397 4.262-12.153-.44-.395-13.851-8.953-29.801-19.019s-29.98-18.932-31.179-19.703c-2.096-1.348-2.202-1.238-2.805 2.918M94 136.604c0 1.367.719 5.346 1.597 8.843l1.597 6.358 22.106 13.747 22.107 13.746 4.33-4.782c2.381-2.631 4.202-4.894 4.046-5.031s-12.771-8.149-28.033-17.807C96.239 135.536 94 134.32 94 136.604m150.987 6.646c-.026 4.298-5.755 18.711-10.403 26.168-10.795 17.319-27.541 29.543-48.084 35.098-4.492 1.215-1.721 1.359 27.25 1.418L246 206v-32.5c0-17.875-.225-32.5-.5-32.5s-.506 1.012-.513 2.25m-234.916 30.5L10 206l32.25-.083c30.348-.079 31.896-.169 26.257-1.532-13.18-3.186-31.294-14.418-39.565-24.533-8.791-10.751-13.378-19.354-16.901-31.698l-1.899-6.654zM102 161.797c0 3.578 14.549 20.539 22.114 25.782l3.946 2.735 4.013-2.907c2.207-1.599 4.106-3.332 4.22-3.852.114-.519-3.843-3.488-8.793-6.597-22.688-14.25-25.5-15.922-25.5-15.161m20.5 37.439c-2.2 1.181-7.375 3.162-11.5 4.402l-7.5 2.255 24.5-.018 24.5-.017-6-1.73c-3.3-.951-8.642-2.944-11.871-4.429-6.971-3.205-7.019-3.207-12.129-.463"/></svg>