<?xml version="1.0" standalone="no"?>
<!DOCTYPE svg PUBLIC "-//W3C//DTD SVG 20010904//EN"
 "http://www.w3.org/TR/2001/REC-SVG-20010904/DTD/svg10.dtd">
<svg version="1.0" xmlns="http://www.w3.org/2000/svg"
 width="700.000000pt" height="700.000000pt" viewBox="0 0 700.000000 700.000000"
 preserveAspectRatio="xMidYMid meet">
<metadata>
Created by potrace 1.14, written by Peter Selinger 2001-2017
</metadata>
<g transform="translate(0.000000,700.000000) scale(0.100000,-0.100000)"
fill="#000000" stroke="none">
<path d="M0 3500 l0 -3500 3500 0 3500 0 0 3500 0 3500 -3500 0 -3500 0 0
-3500z m2820 1935 c202 -33 384 -92 572 -186 l117 -58 123 59 c632 305 1360
255 1943 -135 450 -301 751 -773 841 -1321 25 -150 25 -448 0 -598 -116 -702
-578 -1274 -1231 -1525 -510 -196 -1093 -166 -1577 80 l-117 60 -109 -55
c-694 -348 -1532 -244 -2137 266 -189 160 -348 362 -468 598 -287 561 -287
1207 -1 1770 192 377 476 662 854 854 214 108 447 179 681 205 112 13 391 5
509 -14z"/>
<path d="M2255 5324 c-280 -42 -522 -134 -745 -281 -126 -84 -168 -118 -283
-231 -271 -267 -442 -584 -519 -963 -20 -99 -23 -143 -23 -344 0 -262 15 -362
84 -574 145 -441 451 -808 866 -1038 171 -95 378 -166 595 -205 100 -17 470
-17 570 0 184 33 374 93 515 165 l65 32 -82 60 c-110 81 -278 249 -364 365
-535 714 -535 1656 0 2370 89 119 248 278 366 366 50 37 87 71 83 75 -15 15
-156 81 -235 110 -107 39 -258 77 -381 94 -127 18 -391 18 -512 -1z"/>
<path d="M4300 5324 c-14 -2 -59 -9 -100 -15 -166 -24 -329 -74 -492 -151
l-87 -41 87 -66 c228 -171 426 -415 561 -690 328 -667 244 -1470 -217 -2061
-89 -113 -227 -250 -337 -335 -49 -38 -94 -72 -98 -75 -22 -19 248 -134 408
-174 299 -75 624 -75 914 -2 552 140 1010 535 1239 1068 154 361 185 778 86
1173 -109 432 -396 832 -774 1078 -231 150 -491 247 -760 283 -94 12 -365 17
-430 8z"/>
<path d="M3419 4990 c-46 -33 -101 -75 -121 -92 l-38 -33 383 -237 c210 -131
415 -258 455 -283 l74 -46 -47 88 c-107 203 -309 438 -504 584 -58 43 -109 79
-112 79 -4 0 -44 -27 -90 -60z"/>
<path d="M3119 4723 c-59 -66 -164 -202 -158 -207 16 -13 1383 -875 1385 -873
1 1 -4 49 -12 106 -15 115 -58 301 -80 343 -10 19 -165 121 -544 358 -292 181
-532 330 -534 330 -2 0 -28 -26 -57 -57z"/>
<path d="M2852 4337 c-54 -106 -123 -280 -114 -289 4 -3 356 -227 782 -497
654 -414 776 -488 781 -473 17 46 41 227 42 320 l2 104 -724 459 c-399 252
-725 459 -725 459 -1 0 -20 -37 -44 -83z"/>
<path d="M2691 3893 c-19 -72 -41 -251 -41 -329 l0 -79 687 -435 c378 -239
703 -445 724 -458 l37 -22 55 107 c52 102 114 259 106 267 -4 4 -1454 923
-1521 964 l-37 23 -10 -38z"/>
<path d="M2655 3314 c2 -16 9 -63 16 -104 13 -88 53 -257 72 -303 12 -27 90
-79 542 -361 408 -253 532 -326 544 -319 36 22 210 238 200 247 -11 9 -1356
859 -1366 863 -9 4 -12 -3 -8 -23z"/>
<path d="M2840 2677 c0 -18 116 -204 181 -290 90 -120 271 -298 387 -381 l83
-58 52 34 c60 41 181 136 184 146 2 6 -852 541 -878 550 -5 2 -9 1 -9 -1z"/>
</g>
</svg>
